<?xml version="1.0" encoding="UTF-8"?>
<svg version="1.1" xmlns="http://www.w3.org/2000/svg" width="837" height="843">
<path d="M0 0 C276.21 0 552.42 0 837 0 C837 278.19 837 556.38 837 843 C560.79 843 284.58 843 0 843 C0 564.81 0 286.62 0 0 Z " fill="#000000" transform="translate(0,0)"/>
<path d="M0 0 C0 0.66 0 1.32 0 2 C1.134375 1.95875 2.26875 1.9175 3.4375 1.875 C11.00092134 1.85068032 18.51196806 3.03713022 26 4 C26 4.66 26 5.32 26 6 C27.10794922 6.07347656 27.10794922 6.07347656 28.23828125 6.1484375 C35.2703391 6.66668319 42.09041062 7.59903995 49 9 C49 9.66 49 10.32 49 11 C49.90492188 11.09087891 49.90492188 11.09087891 50.828125 11.18359375 C51.62734375 11.26738281 52.4265625 11.35117188 53.25 11.4375 C54.03890625 11.51871094 54.8278125 11.59992188 55.640625 11.68359375 C57.82364639 11.97634993 59.8773182 12.42064419 62 13 C62 13.66 62 14.32 62 15 C63.2375 15.144375 64.475 15.28875 65.75 15.4375 C68.56504499 15.78688502 71.2701497 16.20379366 74 17 C74 17.66 74 18.32 74 19 C76.97 19.66 79.94 20.32 83 21 C83 21.66 83 22.32 83 23 C83.61488281 23.13277344 84.22976563 23.26554687 84.86328125 23.40234375 C85.67152344 23.57894531 86.47976563 23.75554687 87.3125 23.9375 C88.11300781 24.11152344 88.91351562 24.28554687 89.73828125 24.46484375 C92 25 92 25 95 26 C95 26.66 95 27.32 95 28 C98.96 28.99 98.96 28.99 103 30 C103 30.66 103 31.32 103 32 C105.31 32.66 107.62 33.32 110 34 C110 34.66 110 35.32 110 36 C110.886875 36.12375 111.77375 36.2475 112.6875 36.375 C115.7284206 36.9487586 118.22337139 37.65135182 121 39 C121.33 39.66 121.66 40.32 122 41 C123.64363134 41.72159424 125.31050386 42.39351421 127 43 C127 43.66 127 44.32 127 45 C128.98 45.66 130.96 46.32 133 47 C133 47.66 133 48.32 133 49 C133.62648438 49.18175781 134.25296875 49.36351562 134.8984375 49.55078125 C136.12433594 49.92783203 136.12433594 49.92783203 137.375 50.3125 C138.18710937 50.55613281 138.99921875 50.79976562 139.8359375 51.05078125 C142 52 142 52 144 55 C144.99 55.33 145.98 55.66 147 56 C149.1875 57.9375 149.1875 57.9375 151 60 C151 60.66 151 61.32 151 62 C151.804375 62.268125 152.60875 62.53625 153.4375 62.8125 C154.283125 63.204375 155.12875 63.59625 156 64 C156.33 64.99 156.66 65.98 157 67 C157.66 67.165 158.32 67.33 159 67.5 C159.66 67.665 160.32 67.83 161 68 C161.33 68.99 161.66 69.98 162 71 C164.28891028 72.37334617 166.45752447 73.15250816 169 74 C170.53515625 75.59375 170.53515625 75.59375 172.0625 77.5 C174.17721767 80.18106401 174.17721767 80.18106401 177 82 C177 82.66 177 83.32 177 84 C177.804375 84.268125 178.60875 84.53625 179.4375 84.8125 C180.283125 85.204375 181.12875 85.59625 182 86 C182.33 86.99 182.66 87.98 183 89 C184.83084294 90.77939894 184.83084294 90.77939894 187 92.5 C190.88888889 95.66666667 190.88888889 95.66666667 192 99 C193.49945133 100.20608042 194.99997358 101.41092788 196.51171875 102.6015625 C198.73280013 104.68856285 199.72448731 107.26675852 201 110 C201.99 110.66 202.98 111.32 204 112 C204.33 112.99 204.66 113.98 205 115 C205.680625 115.680625 206.36125 116.36125 207.0625 117.0625 C208.0215625 118.0215625 208.0215625 118.0215625 209 119 C209 119.66 209 120.32 209 121 C209.66 121 210.32 121 211 121 C214 125.38461538 214 125.38461538 214 128 C214.66 128 215.32 128 216 128 C216.66 129.98 217.32 131.96 218 134 C218.66 134 219.32 134 220 134 C221.4606285 136.64738916 222 137.89448334 222 141 C222.99 141.33 223.98 141.66 225 142 C226.4477922 144.89558441 227 146.74188938 227 150 C227.99 150.33 228.98 150.66 230 151 C230.33 152.65 230.66 154.3 231 156 C231.66 156 232.32 156 233 156 C233.66 158.64 234.32 161.28 235 164 C235.66 164 236.32 164 237 164 C237.50833591 165.24663331 238.00631145 166.49749387 238.5 167.75 C238.7784375 168.44609375 239.056875 169.1421875 239.34375 169.859375 C240 172 240 172 240 176 C240.66 176 241.32 176 242 176 C242.66 178.97 243.32 181.94 244 185 C244.66 185 245.32 185 246 185 C246.66 187.97 247.32 190.94 248 194 C248.66 194 249.32 194 250 194 C250.50546036 196.08201528 251.00416835 198.16567067 251.5 200.25 C251.91765625 201.99023438 251.91765625 201.99023438 252.34375 203.765625 C253 207 253 207 253 211 C253.66 211 254.32 211 255 211 C256.38529821 216.45461169 257.2396943 221.36718401 257 227 C257.66 227 258.32 227 259 227 C260.32388229 233.43028541 261.24794402 239.4294834 261 246 C261.66 246 262.32 246 263 246 C267.64396526 277.24531966 266.76550951 309.71203916 263 341 C262.34 341 261.68 341 261 341 C260.93941406 341.86882812 260.87882813 342.73765625 260.81640625 343.6328125 C260.73261719 344.78523438 260.64882813 345.93765625 260.5625 347.125 C260.48128906 348.26195312 260.40007813 349.39890625 260.31640625 350.5703125 C260.02269035 353.7540478 259.56875687 356.85510907 259 360 C258.34 360 257.68 360 257 360 C256.93941406 360.73605469 256.87882813 361.47210938 256.81640625 362.23046875 C256.73261719 363.20628906 256.64882813 364.18210937 256.5625 365.1875 C256.48128906 366.15042969 256.40007813 367.11335938 256.31640625 368.10546875 C256.02333849 370.78649602 255.57296246 373.3662986 255 376 C254.34 376 253.68 376 253 376 C252.814375 377.7015625 252.814375 377.7015625 252.625 379.4375 C252.05770917 384.03337785 251.07315212 388.49901249 250 393 C249.34 393 248.68 393 248 393 C247.34 395.97 246.68 398.94 246 402 C245.34 402 244.68 402 244 402 C243.34 404.97 242.68 407.94 242 411 C241.34 411 240.68 411 240 411 C239.86722656 411.61488281 239.73445312 412.22976563 239.59765625 412.86328125 C239.42105469 413.67152344 239.24445312 414.47976563 239.0625 415.3125 C238.88847656 416.11300781 238.71445312 416.91351562 238.53515625 417.73828125 C238 420 238 420 237 423 C236.34 423 235.68 423 235 423 C234.34 424.98 233.68 426.96 233 429 C232.34 429 231.68 429 231 429 C230.855625 429.763125 230.71125 430.52625 230.5625 431.3125 C230 434 230 434 229 437 C228.34 437 227.68 437 227 437 C226.87625 437.7425 226.7525 438.485 226.625 439.25 C226.04513299 441.80141485 225.26291261 443.7267573 224 446 C223.34 446 222.68 446 222 446 C221.855625 446.598125 221.71125 447.19625 221.5625 447.8125 C221.1127561 449.56150404 220.57107659 451.28677023 220 453 C219.34 453 218.68 453 218 453 C217.71125 453.969375 217.4225 454.93875 217.125 455.9375 C216 459 216 459 214 460 C212.95191959 461.97522846 211.9479589 463.97481509 211 466 C210.34 466 209.68 466 209 466 C208.71125 466.804375 208.4225 467.60875 208.125 468.4375 C207 471 207 471 205 472 C204.690625 472.61875 204.38125 473.2375 204.0625 473.875 C202.9570824 476.08583519 201.73113805 477.26886195 200 479 C199.690625 479.66 199.38125 480.32 199.0625 481 C197.76107811 483.44973532 196.33554042 484.54028724 194 486 C193.34 486 192.68 486 192 486 C191.814375 486.86625 191.62875 487.7325 191.4375 488.625 C189.77948694 492.51772632 187.96935015 494.02298739 184.65625 496.5078125 C182.80175096 498.17861117 182.08637225 499.78082933 181 502 C178.875 502.75 178.875 502.75 177 503 C177 503.66 177 504.32 177 505 C175.35546875 506.7265625 175.35546875 506.7265625 173.1875 508.625 C172.12595703 509.57246094 172.12595703 509.57246094 171.04296875 510.5390625 C169 512 169 512 166 512 C165.34 513.32 164.68 514.64 164 516 C163.34 516 162.68 516 162 516 C161.34 517.32 160.68 518.64 160 520 C159.01 520 158.02 520 157 520 C156.62875 520.9590625 156.62875 520.9590625 156.25 521.9375 C155 524 155 524 152.875 524.75 C151.946875 524.87375 151.946875 524.87375 151 525 C151 525.66 151 526.32 151 527 C148.55626913 529.79283528 146.30935795 531.40237892 143 533 C142.67 533.66 142.34 534.32 142 535 C139.66666667 536 137.33333333 537 135 538 C134.67 538.66 134.34 539.32 134 540 C131.6859378 540.73075648 129.35171131 541.40138258 127 542 C127 542.66 127 543.32 127 544 C125.02 544.66 123.04 545.32 121 546 C121 546.66 121 547.32 121 548 C119.73160474 548.50615298 118.46016898 549.00469099 117.1875 549.5 C116.12595703 549.91765625 116.12595703 549.91765625 115.04296875 550.34375 C113 551 113 551 110 551 C110 551.66 110 552.32 110 553 C107 555 107 555 104 555 C104 555.66 104 556.32 104 557 C101.09399739 558.25664978 99.20395416 559 96 559 C96 559.66 96 560.32 96 561 C94.58603098 561.50757862 93.16868271 562.00574925 91.75 562.5 C90.96109375 562.7784375 90.1721875 563.056875 89.359375 563.34375 C87 564 87 564 83 564 C83 564.66 83 565.32 83 566 C79.62902617 567.49821059 77.79557881 568 74 568 C74 568.66 74 569.32 74 570 C69.73383684 571.13764351 66.43513689 572 62 572 C62 572.66 62 573.32 62 574 C59.93918639 574.50690584 57.87626474 575.00524619 55.8125 575.5 C54.08966797 575.91765625 54.08966797 575.91765625 52.33203125 576.34375 C49.43181171 576.91495385 46.93903615 577.13283779 44 577 C44 577.66 44 578.32 44 579 C42.12612523 579.3396019 40.25083303 579.67138691 38.375 580 C37.33085937 580.185625 36.28671875 580.37125 35.2109375 580.5625 C32.09425135 580.98715797 29.14069188 581.07545206 26 581 C26 581.66 26 582.32 26 583 C8.14350797 585.29612756 8.14350797 585.29612756 0 585 C0 585.66 0 586.32 0 587 C-19.1194975 587.95954766 -37.87820365 587.91380216 -57 587 C-57 586.34 -57 585.68 -57 585 C-58.7015625 585.061875 -58.7015625 585.061875 -60.4375 585.125 C-68.00092134 585.14931968 -75.51196806 583.96286978 -83 583 C-83 582.34 -83 581.68 -83 581 C-84.3921875 581.061875 -84.3921875 581.061875 -85.8125 581.125 C-90.9731635 581.1462373 -95.96162598 580.02043018 -101 579 C-101 578.34 -101 577.68 -101 577 C-102.27875 576.87625 -103.5575 576.7525 -104.875 576.625 C-109.98644221 576.06428535 -114.97606474 575.08030341 -120 574 C-120 573.34 -120 572.68 -120 572 C-123.63 571.34 -127.26 570.68 -131 570 C-131 569.34 -131 568.68 -131 568 C-133.97 567.34 -136.94 566.68 -140 566 C-140 565.34 -140 564.68 -140 564 C-140.61488281 563.86722656 -141.22976563 563.73445312 -141.86328125 563.59765625 C-142.67152344 563.42105469 -143.47976563 563.24445312 -144.3125 563.0625 C-145.11300781 562.88847656 -145.91351563 562.71445312 -146.73828125 562.53515625 C-149 562 -149 562 -152 561 C-152 560.34 -152 559.68 -152 559 C-152.763125 558.855625 -153.52625 558.71125 -154.3125 558.5625 C-157 558 -157 558 -160 557 C-160 556.34 -160 555.68 -160 555 C-162.64 554.34 -165.28 553.68 -168 553 C-168 552.34 -168 551.68 -168 551 C-168.71027344 550.80664062 -169.42054688 550.61328125 -170.15234375 550.4140625 C-171.53099609 550.02347656 -171.53099609 550.02347656 -172.9375 549.625 C-174.31228516 549.24214844 -174.31228516 549.24214844 -175.71484375 548.8515625 C-178 548 -178 548 -179 546 C-179.99 545.67 -180.98 545.34 -182 545 C-182.99 544.67 -183.98 544.34 -185 544 C-185.33 543.34 -185.66 542.68 -186 542 C-188.01669827 540.86649466 -188.01669827 540.86649466 -190 540 C-190 539.34 -190 538.68 -190 538 C-190.93972656 537.72736328 -190.93972656 537.72736328 -191.8984375 537.44921875 C-193.12433594 537.07216797 -193.12433594 537.07216797 -194.375 536.6875 C-195.18710937 536.44386719 -195.99921875 536.20023438 -196.8359375 535.94921875 C-199 535 -199 535 -201 532 C-201.99 531.67 -202.98 531.34 -204 531 C-206.1875 529.0625 -206.1875 529.0625 -208 527 C-208 526.34 -208 525.68 -208 525 C-208.61875 524.9175 -209.2375 524.835 -209.875 524.75 C-212.66938743 523.76374561 -212.716952 522.56609601 -214 520 C-214.5775 519.855625 -215.155 519.71125 -215.75 519.5625 C-219.3254526 518.66863685 -221.31865556 516.4985255 -224 514 C-224 513.34 -224 512.68 -224 512 C-224.721875 511.773125 -225.44375 511.54625 -226.1875 511.3125 C-229.56432417 509.73664872 -231.55767039 507.79123384 -234 505 C-234 504.34 -234 503.68 -234 503 C-234.61875 502.9175 -235.2375 502.835 -235.875 502.75 C-238 502 -238 502 -238.91015625 500.140625 C-240.45578719 497.10476207 -242.77583799 495.60185368 -245.44140625 493.5625 C-247.24918101 491.75019447 -247.60747491 490.49495398 -248 488 C-248.66 488 -249.32 488 -250 488 C-251.47265625 486.609375 -251.47265625 486.609375 -253.0625 484.75 C-253.85333984 483.84507812 -253.85333984 483.84507812 -254.66015625 482.921875 C-256.06245267 480.91041774 -256.43212804 479.35118916 -257 477 C-258.9837767 475.71563266 -258.9837767 475.71563266 -261 475 C-261 474.01 -261 473.02 -261 472 C-261.9590625 471.62875 -261.9590625 471.62875 -262.9375 471.25 C-265 470 -265 470 -265.75 467.875 C-265.8325 467.25625 -265.915 466.6375 -266 466 C-266.66 466 -267.32 466 -268 466 C-270 463 -270 463 -270 460 C-270.99 459.67 -271.98 459.34 -273 459 C-273.6875 456.9375 -273.6875 456.9375 -274 455 C-274.66 455 -275.32 455 -276 455 C-279 449.375 -279 449.375 -279 446 C-279.99 445.67 -280.98 445.34 -282 445 C-282.33 443.35 -282.66 441.7 -283 440 C-283.66 440 -284.32 440 -285 440 C-286.4606285 437.35261084 -287 436.10551666 -287 433 C-287.66 433 -288.32 433 -289 433 C-289.99 429.7 -290.98 426.4 -292 423 C-292.66 423 -293.32 423 -294 423 C-295.25664978 420.09399739 -296 418.20395416 -296 415 C-296.66 415 -297.32 415 -298 415 C-298.66 411.7 -299.32 408.4 -300 405 C-300.66 405 -301.32 405 -302 405 C-302.99 401.04 -303.98 397.08 -305 393 C-305.66 393 -306.32 393 -307 393 C-307.33872513 391.58461283 -307.67074624 390.16762037 -308 388.75 C-308.185625 387.96109375 -308.37125 387.1721875 -308.5625 386.359375 C-309 384 -309 384 -309 380 C-309.66 380 -310.32 380 -311 380 C-313.28571429 371.57142857 -313.28571429 371.57142857 -313 367 C-313.66 367 -314.32 367 -315 367 C-315.50831867 364.16793882 -316.00681505 361.33470266 -316.5 358.5 C-316.64308594 357.70851563 -316.78617188 356.91703125 -316.93359375 356.1015625 C-317.81386457 350.9876082 -318.1428131 346.18887598 -318 341 C-318.66 341 -319.32 341 -320 341 C-321.98491946 326.96378382 -322.23441945 313.16254136 -322 299 C-322.66 299 -323.32 299 -324 299 C-324 295.37 -324 291.74 -324 288 C-323.34 288 -322.68 288 -322 288 C-322.01571045 287.15743652 -322.01571045 287.15743652 -322.03173828 286.29785156 C-322.24940895 272.71409967 -321.63819706 259.48587221 -320 246 C-319.34 246 -318.68 246 -318 246 C-317.95101562 245.20078125 -317.90203125 244.4015625 -317.8515625 243.578125 C-317.33230084 235.95035031 -316.39489515 228.5161826 -315 221 C-314.34 221 -313.68 221 -313 221 C-312.93941406 220.32453125 -312.87882813 219.6490625 -312.81640625 218.953125 C-312.73261719 218.06109375 -312.64882813 217.1690625 -312.5625 216.25 C-312.48128906 215.36828125 -312.40007812 214.4865625 -312.31640625 213.578125 C-312.03761535 211.30649548 -311.61209423 209.20148177 -311 207 C-310.34 207 -309.68 207 -309 207 C-308.855625 205.783125 -308.71125 204.56625 -308.5625 203.3125 C-308.17219047 200.17329623 -307.67648144 197.0924866 -307 194 C-306.34 194 -305.68 194 -305 194 C-304.86722656 193.38511719 -304.73445313 192.77023437 -304.59765625 192.13671875 C-304.42105469 191.32847656 -304.24445313 190.52023437 -304.0625 189.6875 C-303.80146484 188.48673828 -303.80146484 188.48673828 -303.53515625 187.26171875 C-303 185 -303 185 -302 182 C-301.34 182 -300.68 182 -300 182 C-299.7834375 180.6078125 -299.7834375 180.6078125 -299.5625 179.1875 C-299 176 -299 176 -298 173 C-297.34 173 -296.68 173 -296 173 C-295.7834375 171.6078125 -295.7834375 171.6078125 -295.5625 170.1875 C-295 167 -295 167 -294 164 C-293.34 164 -292.68 164 -292 164 C-291.01 161.03 -290.02 158.06 -289 155 C-288.34 155 -287.68 155 -287 155 C-286.855625 154.236875 -286.71125 153.47375 -286.5625 152.6875 C-286 150 -286 150 -285 147 C-284.34 147 -283.68 147 -283 147 C-282.01 144.03 -282.01 144.03 -281 141 C-280.34 141 -279.68 141 -279 141 C-278.87625 140.443125 -278.7525 139.88625 -278.625 139.3125 C-277.94023145 136.77885636 -277.00866237 134.42078968 -276 132 C-275.34 132 -274.68 132 -274 132 C-273.690625 131.05125 -273.38125 130.1025 -273.0625 129.125 C-272 126 -272 126 -271 124 C-270.34 124 -269.68 124 -269 124 C-268.34 122.35 -267.68 120.7 -267 119 C-266.34 119 -265.68 119 -265 119 C-264.34 117.68 -263.68 116.36 -263 115 C-262.34 115 -261.68 115 -261 115 C-260.896875 114.360625 -260.79375 113.72125 -260.6875 113.0625 C-260.460625 112.381875 -260.23375 111.70125 -260 111 C-259.01 110.67 -258.02 110.34 -257 110 C-256.71125 109.0925 -256.4225 108.185 -256.125 107.25 C-254.79603308 103.41076223 -253.06978952 101.60932109 -250 99 C-249.34 99 -248.68 99 -248 99 C-247.79375 98.278125 -247.5875 97.55625 -247.375 96.8125 C-245.60487567 93.19179115 -243.10152725 91.53185898 -240 89 C-239.443125 88.071875 -238.88625 87.14375 -238.3125 86.1875 C-237.879375 85.465625 -237.44625 84.74375 -237 84 C-236.01 84 -235.02 84 -234 84 C-233.505 82.515 -233.505 82.515 -233 81 C-231.54519499 79.73495216 -230.08757862 78.47066464 -228.5703125 77.28125 C-226.93198064 75.94450162 -225.48507744 74.50411689 -224 73 C-222.84684608 71.92284941 -221.67982427 70.86037024 -220.5 69.8125 C-219.9121875 69.28269531 -219.324375 68.75289063 -218.71875 68.20703125 C-217 67 -217 67 -214 67 C-213.62875 66.0409375 -213.62875 66.0409375 -213.25 65.0625 C-212 63 -212 63 -209.9375 62.4375 C-209.298125 62.293125 -208.65875 62.14875 -208 62 C-207.67 61.01 -207.34 60.02 -207 59 C-204.93783068 56.54503653 -202.83336981 55.4166849 -200 54 C-199.505 53.01 -199.505 53.01 -199 52 C-196.66666667 51 -194.33333333 50 -192 49 C-191.67 48.34 -191.34 47.68 -191 47 C-189.33333333 46.33333333 -187.66666667 45.66666667 -186 45 C-185.67 44.34 -185.34 43.68 -185 43 C-182.37418862 41.42451317 -181.12900213 41 -178 41 C-178 40.34 -178 39.68 -178 39 C-175.09399739 37.74335022 -173.20395416 37 -170 37 C-170 36.34 -170 35.68 -170 35 C-164.375 32 -164.375 32 -161 32 C-161 31.34 -161 30.68 -161 30 C-158.09399739 28.74335022 -156.20395416 28 -153 28 C-153 27.34 -153 26.68 -153 26 C-151.58603098 25.49242138 -150.16868271 24.99425075 -148.75 24.5 C-147.56664062 24.08234375 -147.56664062 24.08234375 -146.359375 23.65625 C-144 23 -144 23 -140 23 C-140 22.34 -140 21.68 -140 21 C-136.62902617 19.50178941 -134.79557881 19 -131 19 C-131 18.34 -131 17.68 -131 17 C-125.555 16.01 -125.555 16.01 -120 15 C-120 14.34 -120 13.68 -120 13 C-117.96040523 12.49161436 -115.91820862 11.99366114 -113.875 11.5 C-112.73804688 11.2215625 -111.60109375 10.943125 -110.4296875 10.65625 C-107.18533302 10.03546235 -104.29185543 9.87993232 -101 10 C-101 9.34 -101 8.68 -101 8 C-94.93184478 6.77100654 -89.20104812 5.72439786 -83 6 C-83 5.34 -83 4.68 -83 4 C-65.14350797 1.70387244 -65.14350797 1.70387244 -57 2 C-57 1.34 -57 0.68 -57 0 C-37.8805025 -0.95954766 -19.12179635 -0.91380216 0 0 Z " fill="#EB1C23" transform="translate(473,110)"/>
<path d="M0 0 C1.98 0.495 1.98 0.495 4 1 C4 1.66 4 2.32 4 3 C4.94875 3.309375 5.8975 3.61875 6.875 3.9375 C10 5 10 5 12 6 C12 6.66 12 7.32 12 8 C12.969375 8.28875 13.93875 8.5775 14.9375 8.875 C18 10 18 10 19 12 C21.01669827 13.13350534 21.01669827 13.13350534 23 14 C23 14.66 23 15.32 23 16 C23.7425 16.2475 24.485 16.495 25.25 16.75 C28.21790544 18.09904793 29.75532923 19.68050687 32 22 C32.99 22.33 33.98 22.66 35 23 C37.6875 25.4375 37.6875 25.4375 40 28 C40 28.66 40 29.32 40 30 C40.639375 30.103125 41.27875 30.20625 41.9375 30.3125 C42.618125 30.539375 43.29875 30.76625 44 31 C44.33 31.99 44.66 32.98 45 34 C47.00016466 35.20882096 47.00016466 35.20882096 49 36 C49 36.66 49 37.32 49 38 C50.11375 38.37125 50.11375 38.37125 51.25 38.75 C54.24973455 40.1135157 55.92077267 41.45872215 58 44 C58 44.99 58 45.98 58 47 C59.32 47.66 60.64 48.32 62 49 C62 49.66 62 50.32 62 51 C62.639375 51.268125 63.27875 51.53625 63.9375 51.8125 C66 53 66 53 67 56 C67.66 56 68.32 56 69 56 C69.2475 56.5775 69.495 57.155 69.75 57.75 C70.93990475 60.13449889 70.93990475 60.13449889 73.125 62.125 C75 64 75 64 75 66 C75.99 66.33 76.98 66.66 78 67 C80 70 80 70 80 73 C81.32 73.66 82.64 74.32 84 75 C84 75.66 84 76.32 84 77 C84.66 77 85.32 77 86 77 C86.66 78.65 87.32 80.3 88 82 C88.66 82 89.32 82 90 82 C93 87.625 93 87.625 93 91 C93.99 91.33 94.98 91.66 96 92 C96.33 93.65 96.66 95.3 97 97 C97.66 97 98.32 97 99 97 C100.4606285 99.64738916 101 100.89448334 101 104 C101.99 104.33 102.98 104.66 104 105 C105.4477922 107.89558441 106 109.74188938 106 113 C106.66 113 107.32 113 108 113 C109.25664978 115.90600261 110 117.79604584 110 121 C110.66 121 111.32 121 112 121 C113.25664978 123.90600261 114 125.79604584 114 129 C114.66 129 115.32 129 116 129 C116.50757862 130.41396902 117.00574925 131.83131729 117.5 133.25 C117.91765625 134.43335938 117.91765625 134.43335938 118.34375 135.640625 C119 138 119 138 119 142 C119.66 142 120.32 142 121 142 C121.66 144.97 122.32 147.94 123 151 C123.66 151 124.32 151 125 151 C125.33872513 152.41538717 125.67074624 153.83237963 126 155.25 C126.185625 156.03890625 126.37125 156.8278125 126.5625 157.640625 C127 160 127 160 127 164 C127.66 164 128.32 164 129 164 C129.50780894 166.20655075 130.00591365 168.41533605 130.5 170.625 C130.91765625 172.46964844 130.91765625 172.46964844 131.34375 174.3515625 C131.94091621 177.67152228 132.12409534 180.63908451 132 184 C132.66 184 133.32 184 134 184 C135.25841946 190.74153283 136.26404456 197.13484138 136 204 C136.66 204 137.32 204 138 204 C139.53137269 217.58351994 140.3218413 230.98698589 140.26074219 244.65673828 C140.25000287 247.49924017 140.26073257 250.34111046 140.2734375 253.18359375 C140.28163493 265.89288381 139.42349768 278.37334859 138 291 C137.34 291 136.68 291 136 291 C136.061875 292.5778125 136.061875 292.5778125 136.125 294.1875 C136.14668319 300.20458589 135.00976292 306.0856743 134 312 C133.34 312 132.68 312 132 312 C131.95101563 312.78503906 131.90203125 313.57007813 131.8515625 314.37890625 C131.4379964 320.19022303 130.88217852 325.478943 129 331 C128.34 331 127.68 331 127 331 C126.93941406 331.60328125 126.87882812 332.2065625 126.81640625 332.828125 C126.73261719 333.62734375 126.64882813 334.4265625 126.5625 335.25 C126.48128906 336.03890625 126.40007812 336.8278125 126.31640625 337.640625 C126.02365007 339.82364639 125.57935581 341.8773182 125 344 C124.34 344 123.68 344 123 344 C122.855625 345.11375 122.71125 346.2275 122.5625 347.375 C122 351 122 351 121 353 C120.34 353 119.68 353 119 353 C118.87625 354.03125 118.7525 355.0625 118.625 356.125 C118.06110186 359.62116846 117.21317941 362.68397627 116 366 C115.34 366 114.68 366 114 366 C113.855625 366.94875 113.71125 367.8975 113.5625 368.875 C113 372 113 372 112 374 C111.34 374 110.68 374 110 374 C109.855625 374.763125 109.71125 375.52625 109.5625 376.3125 C109 379 109 379 108 382 C107.34 382 106.68 382 106 382 C105.855625 382.763125 105.71125 383.52625 105.5625 384.3125 C105 387 105 387 104 390 C103.34 390 102.68 390 102 390 C101.80664062 390.63808594 101.61328125 391.27617188 101.4140625 391.93359375 C101.15367187 392.75988281 100.89328125 393.58617187 100.625 394.4375 C100.36976563 395.26121094 100.11453125 396.08492187 99.8515625 396.93359375 C99 399 99 399 97 400 C95.86649466 402.01669827 95.86649466 402.01669827 95 404 C94.34 404 93.68 404 93 404 C92.87625 404.7425 92.7525 405.485 92.625 406.25 C91.68862483 410.37005077 90.27825541 413.26812049 87 416 C86.34 416 85.68 416 85 416 C84.731875 416.804375 84.46375 417.60875 84.1875 418.4375 C83.795625 419.283125 83.40375 420.12875 83 421 C82.01 421.33 81.02 421.66 80 422 C79.39938767 423.90178785 79.39938767 423.90178785 79 426 C78.34 426.99 77.68 427.98 77 429 C76.34 429 75.68 429 75 429 C74.731875 429.763125 74.46375 430.52625 74.1875 431.3125 C72.99560087 434.00995593 72.11745851 435.03939027 70 437 C69.21625 437.94875 68.4325 438.8975 67.625 439.875 C65.23819112 442.75936118 62.76104624 445.46282238 60 448 C59.34 448 58.68 448 58 448 C57.896875 448.639375 57.79375 449.27875 57.6875 449.9375 C57.460625 450.618125 57.23375 451.29875 57 452 C56.01 452.33 55.02 452.66 54 453 C54 453.66 54 454.32 54 455 C53.401875 455.2578125 52.80375 455.515625 52.1875 455.78125 C49.81668393 457.10213324 48.6576253 458.37391537 47 460.5 C44.85387272 463.25264151 43.1068502 464.47123244 40 466 C39.175 466.99 38.35 467.98 37.5 469 C35.20430497 471.75483403 34.13659226 472.64081002 31 474 C30.505 474.495 30.01 474.99 29.5 475.5 C28 477 28 477 25.9375 478 C23.66757845 478.97325058 23.66757845 478.97325058 22 482 C21.01 482.33 20.02 482.66 19 483 C18.34 483.99 17.68 484.98 17 486 C14.375 486.6875 14.375 486.6875 12 487 C12 487.66 12 488.32 12 489 C6.25 492 6.25 492 4 492 C4 492.66 4 493.32 4 494 C1.35261084 495.4606285 0.10551666 496 -3 496 C-3 496.66 -3 497.32 -3 498 C-5.90600261 499.25664978 -7.79604584 500 -11 500 C-11.33 500.99 -11.66 501.98 -12 503 C-14.3125 503.625 -14.3125 503.625 -17 504 C-21.23830976 501.17446016 -20.97715348 498.87819112 -22 494 C-22.66 494 -23.32 494 -24 494 C-24.50615298 492.73160474 -25.00469099 491.46016898 -25.5 490.1875 C-25.7784375 489.47980469 -26.056875 488.77210938 -26.34375 488.04296875 C-27 486 -27 486 -27 483 C-27.66 483 -28.32 483 -29 483 C-29.99 479.535 -29.99 479.535 -31 476 C-31.66 476 -32.32 476 -33 476 C-34.31626692 472.38026598 -35 469.90432869 -35 466 C-35.66 466 -36.32 466 -37 466 C-40 459.375 -40 459.375 -40 456 C-40.66 456 -41.32 456 -42 456 C-43.25664978 453.09399739 -44 451.20395416 -44 448 C-44.66 448 -45.32 448 -46 448 C-47.25664978 445.09399739 -48 443.20395416 -48 440 C-48.66 440 -49.32 440 -50 440 C-53 433.375 -53 433.375 -53 430 C-53.66 430 -54.32 430 -55 430 C-56.25664978 427.09399739 -57 425.20395416 -57 422 C-57.66 422 -58.32 422 -59 422 C-59.66 419.03 -60.32 416.06 -61 413 C-61.66 413 -62.32 413 -63 413 C-63.99 409.7 -64.98 406.4 -66 403 C-66.66 403 -67.32 403 -68 403 C-69.25664978 400.09399739 -70 398.20395416 -70 395 C-70.66 395 -71.32 395 -72 395 C-73.25664978 392.09399739 -74 390.20395416 -74 387 C-74.66 387 -75.32 387 -76 387 C-76.99 383.7 -77.98 380.4 -79 377 C-79.66 377 -80.32 377 -81 377 C-81.66 374.03 -82.32 371.06 -83 368 C-83.66 368 -84.32 368 -85 368 C-85.99 364.04 -85.99 364.04 -87 360 C-87.66 360 -88.32 360 -89 360 C-89.50615298 358.73160474 -90.00469099 357.46016898 -90.5 356.1875 C-90.7784375 355.47980469 -91.056875 354.77210938 -91.34375 354.04296875 C-92 352 -92 352 -92 349 C-92.66 349 -93.32 349 -94 349 C-94.66 346.69 -95.32 344.38 -96 342 C-96.66 342 -97.32 342 -98 342 C-99.25664978 339.09399739 -100 337.20395416 -100 334 C-100.66 334 -101.32 334 -102 334 C-102.99 330.7 -103.98 327.4 -105 324 C-105.66 324 -106.32 324 -107 324 C-107.66 320.7 -108.32 317.4 -109 314 C-109.66 314 -110.32 314 -111 314 C-111.66 311.69 -112.32 309.38 -113 307 C-113.66 307 -114.32 307 -115 307 C-115.50615298 305.73160474 -116.00469099 304.46016898 -116.5 303.1875 C-116.91765625 302.12595703 -116.91765625 302.12595703 -117.34375 301.04296875 C-118 299 -118 299 -118 296 C-118.66 296 -119.32 296 -120 296 C-121.25664978 293.09399739 -122 291.20395416 -122 288 C-122.66 288 -123.32 288 -124 288 C-124.66 285.69 -125.32 283.38 -126 281 C-126.66 281 -127.32 281 -128 281 C-128.50559908 279.56445975 -129.0042749 278.1264798 -129.5 276.6875 C-129.7784375 275.88699219 -130.056875 275.08648437 -130.34375 274.26171875 C-131 272 -131 272 -131 269 C-131.66 269 -132.32 269 -133 269 C-134.25664978 266.09399739 -135 264.20395416 -135 261 C-135.66 261 -136.32 261 -137 261 C-138.25664978 258.09399739 -139 256.20395416 -139 253 C-139.66 253 -140.32 253 -141 253 C-141.19335938 252.43410156 -141.38671875 251.86820313 -141.5859375 251.28515625 C-141.84632813 250.55167969 -142.10671875 249.81820312 -142.375 249.0625 C-142.63023437 248.33160156 -142.88546875 247.60070312 -143.1484375 246.84765625 C-143.85271413 244.81317884 -143.85271413 244.81317884 -146 244 C-146 243.34 -146 242.68 -146 242 C-145.34 242 -144.68 242 -144 242 C-143.731875 240.865625 -143.46375 239.73125 -143.1875 238.5625 C-142.5996875 236.7990625 -142.5996875 236.7990625 -142 235 C-141.01 234.67 -140.02 234.34 -139 234 C-138.855625 233.21625 -138.71125 232.4325 -138.5625 231.625 C-138 229 -138 229 -137 227 C-136.34 227 -135.68 227 -135 227 C-134.34 225.02 -133.68 223.04 -133 221 C-132.34 221 -131.68 221 -131 221 C-130.87625 220.2575 -130.7525 219.515 -130.625 218.75 C-130.04513299 216.19858515 -129.26291261 214.2732427 -128 212 C-127.34 212 -126.68 212 -126 212 C-125.855625 211.401875 -125.71125 210.80375 -125.5625 210.1875 C-125.1127561 208.43849596 -124.57107659 206.71322977 -124 205 C-123.34 205 -122.68 205 -122 205 C-121.34 203.02 -120.68 201.04 -120 199 C-119.34 199 -118.68 199 -118 199 C-117.87625 198.443125 -117.7525 197.88625 -117.625 197.3125 C-116.94023145 194.77885636 -116.00866237 192.42078968 -115 190 C-114.34 190 -113.68 190 -113 190 C-112.34 187.69 -111.68 185.38 -111 183 C-110.34 183 -109.68 183 -109 183 C-108.01 180.03 -108.01 180.03 -107 177 C-106.34 177 -105.68 177 -105 177 C-104.87625 176.443125 -104.7525 175.88625 -104.625 175.3125 C-103.94023145 172.77885636 -103.00866237 170.42078968 -102 168 C-101.34 168 -100.68 168 -100 168 C-99.71125 166.865625 -99.4225 165.73125 -99.125 164.5625 C-98.75375 163.386875 -98.3825 162.21125 -98 161 C-97.34 160.67 -96.68 160.34 -96 160 C-95.27840576 158.35636866 -94.60648579 156.68949614 -94 155 C-93.34 155 -92.68 155 -92 155 C-91.731875 153.865625 -91.46375 152.73125 -91.1875 151.5625 C-90.795625 150.386875 -90.40375 149.21125 -90 148 C-89.01 147.67 -88.02 147.34 -87 147 C-86.855625 146.21625 -86.71125 145.4325 -86.5625 144.625 C-86 142 -86 142 -85 140 C-84.34 140 -83.68 140 -83 140 C-82.01 137.03 -82.01 137.03 -81 134 C-80.34 134 -79.68 134 -79 134 C-78.87625 133.2575 -78.7525 132.515 -78.625 131.75 C-78.04513299 129.19858515 -77.26291261 127.2732427 -76 125 C-75.34 125 -74.68 125 -74 125 C-73.7834375 124.1028125 -73.7834375 124.1028125 -73.5625 123.1875 C-73.1127561 121.43849596 -72.57107659 119.71322977 -72 118 C-71.34 118 -70.68 118 -70 118 C-69.34 116.02 -68.68 114.04 -68 112 C-67.34 112 -66.68 112 -66 112 C-65.87625 111.443125 -65.7525 110.88625 -65.625 110.3125 C-64.94023145 107.77885636 -64.00866237 105.42078968 -63 103 C-62.34 103 -61.68 103 -61 103 C-60.71125 101.865625 -60.4225 100.73125 -60.125 99.5625 C-59.568125 97.7990625 -59.568125 97.7990625 -59 96 C-58.34 95.67 -57.68 95.34 -57 95 C-56.27840576 93.35636866 -55.60648579 91.68949614 -55 90 C-54.34 90 -53.68 90 -53 90 C-52.731875 88.865625 -52.46375 87.73125 -52.1875 86.5625 C-51.795625 85.386875 -51.40375 84.21125 -51 83 C-50.01 82.67 -49.02 82.34 -48 82 C-47.855625 81.21625 -47.71125 80.4325 -47.5625 79.625 C-47 77 -47 77 -46 75 C-45.34 75 -44.68 75 -44 75 C-43.34 73.02 -42.68 71.04 -42 69 C-41.34 69 -40.68 69 -40 69 C-39.87625 68.2575 -39.7525 67.515 -39.625 66.75 C-39.04513299 64.19858515 -38.26291261 62.2732427 -37 60 C-36.34 60 -35.68 60 -35 60 C-34.855625 59.401875 -34.71125 58.80375 -34.5625 58.1875 C-34.1127561 56.43849596 -33.57107659 54.71322977 -33 53 C-32.34 53 -31.68 53 -31 53 C-30.01 50.03 -30.01 50.03 -29 47 C-28.34 47 -27.68 47 -27 47 C-26.87625 46.443125 -26.7525 45.88625 -26.625 45.3125 C-25.94023145 42.77885636 -25.00866237 40.42078968 -24 38 C-23.34 38 -22.68 38 -22 38 C-21.71125 36.865625 -21.4225 35.73125 -21.125 34.5625 C-20.75375 33.386875 -20.3825 32.21125 -20 31 C-19.01 30.505 -19.01 30.505 -18 30 C-17.27840576 28.35636866 -16.60648579 26.68949614 -16 25 C-15.34 25 -14.68 25 -14 25 C-13.5978125 23.2984375 -13.5978125 23.2984375 -13.1875 21.5625 C-12.795625 20.386875 -12.40375 19.21125 -12 18 C-11.01 17.67 -10.02 17.34 -9 17 C-8.855625 16.21625 -8.71125 15.4325 -8.5625 14.625 C-8 12 -8 12 -7 10 C-6.34 10 -5.68 10 -5 10 C-4.34 8.02 -3.68 6.04 -3 4 C-2.34 4 -1.68 4 -1 4 C-0.67 2.68 -0.34 1.36 0 0 Z " fill="#0FD044" transform="translate(594,156)"/>
<path d="M0 0 C0.99 0 1.98 0 3 0 C3.33 1.32 3.66 2.64 4 4 C4.66 4 5.32 4 6 4 C6.50615298 5.26839526 7.00469099 6.53983102 7.5 7.8125 C7.91765625 8.87404297 7.91765625 8.87404297 8.34375 9.95703125 C9 12 9 12 9 15 C9.66 15 10.32 15 11 15 C12.25664978 17.90600261 13 19.79604584 13 23 C13.66 23 14.32 23 15 23 C15.50367757 24.45706726 16.00282556 25.91570096 16.5 27.375 C16.91765625 28.59316406 16.91765625 28.59316406 17.34375 29.8359375 C18 32 18 32 18 34 C18.66 34 19.32 34 20 34 C21.25664978 36.90600261 22 38.79604584 22 42 C22.66 42 23.32 42 24 42 C25.25664978 44.90600261 26 46.79604584 26 50 C26.66 50 27.32 50 28 50 C29.25664978 52.90600261 30 54.79604584 30 58 C30.66 58 31.32 58 32 58 C35 64.625 35 64.625 35 68 C35.66 68 36.32 68 37 68 C38.25664978 70.90600261 39 72.79604584 39 76 C39.66 76 40.32 76 41 76 C41.99 80.455 41.99 80.455 43 85 C43.66 85 44.32 85 45 85 C45.99 88.3 46.98 91.6 48 95 C48.66 95 49.32 95 50 95 C51.25664978 97.90600261 52 99.79604584 52 103 C52.66 103 53.32 103 54 103 C55.25664978 105.90600261 56 107.79604584 56 111 C56.66 111 57.32 111 58 111 C58.99 114.3 59.98 117.6 61 121 C61.66 121 62.32 121 63 121 C64.49821059 124.37097383 65 126.20442119 65 130 C65.66 130 66.32 130 67 130 C67.66 132.64 68.32 135.28 69 138 C69.66 138 70.32 138 71 138 C71.50615298 139.26839526 72.00469099 140.53983102 72.5 141.8125 C72.91765625 142.87404297 72.91765625 142.87404297 73.34375 143.95703125 C74 146 74 146 74 149 C74.66 149 75.32 149 76 149 C76.99 152.465 76.99 152.465 78 156 C78.66 156 79.32 156 80 156 C80.66 158.64 81.32 161.28 82 164 C82.66 164 83.32 164 84 164 C84.50615298 165.26839526 85.00469099 166.53983102 85.5 167.8125 C85.91765625 168.87404297 85.91765625 168.87404297 86.34375 169.95703125 C87 172 87 172 87 175 C87.66 175 88.32 175 89 175 C89.99 179.455 89.99 179.455 91 184 C91.66 184 92.32 184 93 184 C93.99 187.465 93.99 187.465 95 191 C95.66 191 96.32 191 97 191 C97.50615298 192.26839526 98.00469099 193.53983102 98.5 194.8125 C98.91765625 195.87404297 98.91765625 195.87404297 99.34375 196.95703125 C100 199 100 199 100 202 C100.66 202 101.32 202 102 202 C103.25664978 204.90600261 104 206.79604584 104 210 C104.66 210 105.32 210 106 210 C109 216.625 109 216.625 109 220 C109.66 220 110.32 220 111 220 C111.66 222.97 112.32 225.94 113 229 C113.66 229 114.32 229 115 229 C116.25664978 231.90600261 117 233.79604584 117 237 C117.66 237 118.32 237 119 237 C120.25664978 239.90600261 121 241.79604584 121 245 C121.66 245 122.32 245 123 245 C124.485 249.95 124.485 249.95 126 255 C126.66 255 127.32 255 128 255 C128 255.99 128 256.98 128 258 C126.35 258.66 124.7 259.32 123 260 C123 260.66 123 261.32 123 262 C121.39743892 262.50512244 119.79288208 263.00391627 118.1875 263.5 C116.84751953 263.91765625 116.84751953 263.91765625 115.48046875 264.34375 C113 265 113 265 110 265 C110 265.66 110 266.32 110 267 C106.38026598 268.31626692 103.90432869 269 100 269 C100 269.66 100 270.32 100 271 C96.12315913 272.19287411 93.08378077 273 89 273 C89 273.66 89 274.32 89 275 C87.58461283 275.33872513 86.16762037 275.67074624 84.75 276 C83.96109375 276.185625 83.1721875 276.37125 82.359375 276.5625 C80 277 80 277 76 277 C76 277.66 76 278.32 76 279 C73.1259578 279.50612064 70.25097127 280.00506541 67.375 280.5 C66.56675781 280.64308594 65.75851562 280.78617188 64.92578125 280.93359375 C60.56122136 281.67876251 56.44761871 282.17272306 52 282 C52 282.66 52 283.32 52 284 C41.96788765 285.24844065 32.13270429 286.35762486 22 286 C22 286.66 22 287.32 22 288 C7.15 288 -7.7 288 -23 288 C-23 287.34 -23 286.68 -23 286 C-24.8871875 286.061875 -24.8871875 286.061875 -26.8125 286.125 C-35.24593829 286.14940937 -43.63397773 284.96200667 -52 284 C-52 283.34 -52 282.68 -52 282 C-52.65484375 281.95101563 -53.3096875 281.90203125 -53.984375 281.8515625 C-61.067165 281.27133394 -68.0071584 280.25700294 -75 279 C-75 278.34 -75 277.68 -75 277 C-75.60328125 276.93941406 -76.2065625 276.87882812 -76.828125 276.81640625 C-78.02695312 276.69072266 -78.02695312 276.69072266 -79.25 276.5625 C-80.03890625 276.48128906 -80.8278125 276.40007812 -81.640625 276.31640625 C-83.82364639 276.02365007 -85.8773182 275.57935581 -88 275 C-88 274.34 -88 273.68 -88 273 C-88.61488281 272.93941406 -89.22976563 272.87882812 -89.86328125 272.81640625 C-90.67152344 272.73261719 -91.47976563 272.64882813 -92.3125 272.5625 C-93.11300781 272.48128906 -93.91351563 272.40007812 -94.73828125 272.31640625 C-97 272 -97 272 -100 271 C-100 270.34 -100 269.68 -100 269 C-100.845625 268.87625 -101.69125 268.7525 -102.5625 268.625 C-106.15236798 267.97229673 -109.50824875 267.04752537 -113 266 C-113 265.34 -113 264.68 -113 264 C-115.97 263.34 -118.94 262.68 -122 262 C-122 261.34 -122 260.68 -122 260 C-124.64 259.34 -127.28 258.68 -130 258 C-130 257.34 -130 256.68 -130 256 C-133.3 255.01 -136.6 254.02 -140 253 C-140 252.34 -140 251.68 -140 251 C-141.65 250.67 -143.3 250.34 -145 250 C-145.33 249.01 -145.66 248.02 -146 247 C-146.66 246.67 -147.32 246.34 -148 246 C-147.34 245.67 -146.68 245.34 -146 245 C-144.94647157 242.69034152 -143.94280904 240.3570226 -143 238 C-142.34 238 -141.68 238 -141 238 C-140.34 236.02 -139.68 234.04 -139 232 C-138.34 232 -137.68 232 -137 232 C-136.855625 231.21625 -136.71125 230.4325 -136.5625 229.625 C-136 227 -136 227 -135 225 C-134.34 225 -133.68 225 -133 225 C-132.01 222.03 -131.02 219.06 -130 216 C-129.34 216 -128.68 216 -128 216 C-127.34 214.02 -126.68 212.04 -126 210 C-125.34 210 -124.68 210 -124 210 C-123.855625 209.401875 -123.71125 208.80375 -123.5625 208.1875 C-123.1127561 206.43849596 -122.57107659 204.71322977 -122 203 C-121.34 203 -120.68 203 -120 203 C-119.70996094 202.04287109 -119.70996094 202.04287109 -119.4140625 201.06640625 C-119.02347656 199.82697266 -119.02347656 199.82697266 -118.625 198.5625 C-118.36976563 197.73878906 -118.11453125 196.91507813 -117.8515625 196.06640625 C-117 194 -117 194 -115 193 C-114.27840576 191.35636866 -113.60648579 189.68949614 -113 188 C-112.34 188 -111.68 188 -111 188 C-110.71125 186.865625 -110.4225 185.73125 -110.125 184.5625 C-109.75375 183.386875 -109.3825 182.21125 -109 181 C-108.34 180.67 -107.68 180.34 -107 180 C-105.94647157 177.69034152 -104.94280904 175.3570226 -104 173 C-103.34 173 -102.68 173 -102 173 C-101.01 170.03 -101.01 170.03 -100 167 C-99.34 167 -98.68 167 -98 167 C-97.855625 166.21625 -97.71125 165.4325 -97.5625 164.625 C-97 162 -97 162 -96 160 C-95.34 160 -94.68 160 -94 160 C-93.01 157.03 -92.02 154.06 -91 151 C-90.34 151 -89.68 151 -89 151 C-88.01 148.03 -88.01 148.03 -87 145 C-86.34 145 -85.68 145 -85 145 C-84.855625 144.401875 -84.71125 143.80375 -84.5625 143.1875 C-84.1127561 141.43849596 -83.57107659 139.71322977 -83 138 C-82.34 138 -81.68 138 -81 138 C-80.70996094 137.04287109 -80.70996094 137.04287109 -80.4140625 136.06640625 C-80.02347656 134.82697266 -80.02347656 134.82697266 -79.625 133.5625 C-79.36976563 132.73878906 -79.11453125 131.91507813 -78.8515625 131.06640625 C-78 129 -78 129 -76 128 C-75.27840576 126.35636866 -74.60648579 124.68949614 -74 123 C-73.34 123 -72.68 123 -72 123 C-71.71125 121.865625 -71.4225 120.73125 -71.125 119.5625 C-70.568125 117.7990625 -70.568125 117.7990625 -70 116 C-69.34 115.67 -68.68 115.34 -68 115 C-66.94647157 112.69034152 -65.94280904 110.3570226 -65 108 C-64.34 108 -63.68 108 -63 108 C-62.34 106.02 -61.68 104.04 -61 102 C-60.34 102 -59.68 102 -59 102 C-58.855625 101.21625 -58.71125 100.4325 -58.5625 99.625 C-58 97 -58 97 -57 95 C-56.34 95 -55.68 95 -55 95 C-54.01 92.03 -53.02 89.06 -52 86 C-51.34 86 -50.68 86 -50 86 C-49.34 84.02 -48.68 82.04 -48 80 C-47.34 80 -46.68 80 -46 80 C-45.7834375 79.1028125 -45.7834375 79.1028125 -45.5625 78.1875 C-45.1127561 76.43849596 -44.57107659 74.71322977 -44 73 C-43.34 73 -42.68 73 -42 73 C-41.80664062 72.36191406 -41.61328125 71.72382813 -41.4140625 71.06640625 C-41.15367187 70.24011719 -40.89328125 69.41382813 -40.625 68.5625 C-40.36976563 67.73878906 -40.11453125 66.91507812 -39.8515625 66.06640625 C-39 64 -39 64 -37 63 C-36.27840576 61.35636866 -35.60648579 59.68949614 -35 58 C-34.34 58 -33.68 58 -33 58 C-32.71125 56.865625 -32.4225 55.73125 -32.125 54.5625 C-31.75375 53.386875 -31.3825 52.21125 -31 51 C-30.34 50.67 -29.68 50.34 -29 50 C-27.94647157 47.69034152 -26.94280904 45.3570226 -26 43 C-25.34 43 -24.68 43 -24 43 C-23.01 40.03 -23.01 40.03 -22 37 C-21.34 37 -20.68 37 -20 37 C-19.7834375 35.824375 -19.7834375 35.824375 -19.5625 34.625 C-19 32 -19 32 -18 30 C-17.34 30 -16.68 30 -16 30 C-15.01 27.03 -14.02 24.06 -13 21 C-12.34 21 -11.68 21 -11 21 C-10.34 19.02 -9.68 17.04 -9 15 C-8.34 15 -7.68 15 -7 15 C-6.855625 14.401875 -6.71125 13.80375 -6.5625 13.1875 C-6.1127561 11.43849596 -5.57107659 9.71322977 -5 8 C-4.34 8 -3.68 8 -3 8 C-2.690625 7.05125 -2.38125 6.1025 -2.0625 5.125 C-1 2 -1 2 0 0 Z " fill="#FE7E26" transform="translate(444,405)"/>
</svg>
